<svg xmlns="http://www.w3.org/2000/svg" width="146" height="46" viewBox="0 0 146 46"><g><g><g><path fill="#42ad4e" d="M105.778 0l-13.23 22.916 6.775 11.736h8.945l-6.775-11.736 8.758-15.17h17.516l8.758 15.17-8.76 15.17h-4.134l-4.473 7.746h13.082l13.23-22.916L132.24 0z"/></g><g><path fill="#42ad4e" d="M88.733 0l-13.23 22.916 13.23 22.916h26.462l13.23-22.916-6.776-11.736h-8.946l6.777 11.736-8.758 15.17H93.205l-8.758-15.17 8.758-15.17h4.135L101.814 0z"/></g><g><path fill="#4b4a4a" d="M52.918 34.291V12.538H66.12v3.693H56.61v6.181h8.127v3.69H56.61v8.19z"/></g><g><path fill="#4b4a4a" d="M20.229 34.292V12.539h3.691v21.753z"/></g><g><path fill="#4b4a4a" d="M0 34.088v-3.692h6.662c2.25 0 3.392 0 3.392-1.887v-1.926c0-1.646-1.086-1.646-1.926-1.646H4.273c-2.786 0-3.972-.779-3.972-3.471v-5.358c0-3.668 4.04-3.953 5.277-3.953h7.955v3.692H7.182c-1.93 0-3.19 0-3.19 1.826V19.6c0 1.645 1.297 1.645 2.104 1.645h3.84c2.859 0 3.81 1.603 3.81 3.699v5.13c0 3.492-3.647 4.014-5.82 4.014z"/></g><g><path fill="#4b4a4a" d="M34.876 16.23h5.198c1.295 0 2.67.831 2.67 2.368v9.572c0 1.578-1.375 2.429-2.67 2.429h-5.198zm5.018 18.06c5.013 0 6.541-1.669 6.541-7.143v-7.646c0-5.4-1.467-6.962-6.54-6.962h-8.71v21.752z"/></g></g></g></svg>